#!OML:ASF G:\JayActor3\Patient Classification 1\Patient 1\Session 5\male.ASF
:FULLY-SPECIFIED
:DEGREES
785
root -10.1359 16.2577 -4.93922 -427.92 87.6706 -447.813
lowerback 28.6404 -0.906356 1.15303
upperback 6.09006 -0.324452 -0.201919
thorax -8.98878 0.0335338 -0.811692
lowerneck 6.63128 0.110865 0.71391
upperneck -17.6979 0.947527 2.4892
head -6.47721 0.333056 0.590317
rclavicle 8.94531e-015 1.86858e-014
rhumerus -25.4165 3.36537 -88.9989
rradius 36.7547
rwrist -5.76811
rhand -20.8281 -6.74944
rfingers 7.12502
rthumb 5.54035 -36.657
lclavicle 8.94531e-015 1.86858e-014
lhumerus -27.8301 -6.41277 85.9964
lradius 38.4208
lwrist 27.402
lhand -19.9082 10.0437
lfingers 7.12502
lthumb 6.42847 39.9262
rfemur -36.9879 3.95307 28.0732
rtibia 53.0257
rfoot -30.3111 -9.64239
rtoes 3.0077
lfemur -59.1302 7.4029 -24.3627
ltibia 24.8848
lfoot 22.6877 3.36573
ltoes -5.49824
786
root -10.2719 16.2572 -4.91147 -433.558 87.82 -453.298
lowerback 28.7875 -0.99397 1.13057
upperback 6.13 -0.433376 -0.212073
thorax -9.01841 -0.01342 -0.771949
lowerneck 6.63124 0.094887 0.734277
upperneck -17.7014 0.935018 2.5252
head -6.47838 0.322835 0.599353
rclavicle -1.59028e-015 -2.98177e-015
rhumerus -25.3717 3.34107 -89.073
rradius 36.9113
rwrist -5.88
rhand -20.8755 -6.72462
rfingers 7.12502
rthumb 5.49456 -36.6334
lclavicle -1.59028e-015 -2.98177e-015
lhumerus -27.7538 -6.56811 85.9788
lradius 38.492
lwrist 27.3322
lhand -19.8826 10.1022
lfingers 7.12502
lthumb 6.45319 39.9839
rfemur -37.4193 3.72472 28.1144
rtibia 53.1033
rfoot -30.2914 -9.7352
rtoes 3.81378
lfemur -59.3602 7.2496 -24.1213
ltibia 25.3167
lfoot 22.6066 3.3549
ltoes -6.96986
787
root -10.4059 16.2542 -4.88524 -440.014 87.9516 -459.604
lowerback 28.9274 -1.07864 1.11321
upperback 6.16888 -0.537524 -0.224652
thorax -9.04543 -0.0582652 -0.739247
lowerneck 6.61595 0.0765585 0.751048
upperneck -17.6791 0.918506 2.56801
head -6.46865 0.31054 0.61145
rclavicle -6.36111e-015 -9.34288e-015
rhumerus -25.3468 3.31444 -89.136
rradius 37.0478
rwrist -5.9931
rhand -20.9293 -6.71591
rfingers 7.12502
rthumb 5.44256 -36.626
lclavicle -6.36111e-015 -9.34288e-015
lhumerus -27.6779 -6.72685 85.9698
lradius 38.5475
lwrist 27.2716
lhand -19.8551 10.164
lfingers 7.12502
lthumb 6.47967 40.0448
rfemur -37.8894 3.46328 28.1477
rtibia 53.2533
rfoot -30.2518 -9.79856
rtoes 4.52454
lfemur -59.6568 7.10987 -23.9309
ltibia 26.1048
lfoot 22.1454 3.19667
ltoes -8.52245
788
root -10.5381 16.2496 -4.86063 -446.967 88.0604 -466.413
lowerback 29.0578 -1.15472 1.09699
upperback 6.20793 -0.63089 -0.239313
thorax -9.06718 -0.0981219 -0.713127
lowerneck 6.58101 0.0547252 0.766566
upperneck -17.6383 0.895682 2.60975
head -6.44948 0.295625 0.623874
rclavicle -2.08724e-014 -2.48481e-014
rhumerus -25.3344 3.29165 -89.1852
rradius 37.1629
rwrist -6.09971
rhand -20.9785 -6.73974
rfingers 7.12502
rthumb 5.39512 -36.6511
lclavicle -2.08724e-014 -2.48481e-014
lhumerus -27.5961 -6.87825 85.9691
lradius 38.5823
lwrist 27.225
lhand -19.8185 10.1973
lfingers 7.12502
lthumb 6.51507 40.0771
rfemur -38.4032 3.19122 28.1653
rtibia 53.4742
rfoot -30.1712 -9.82984
rtoes 5.13095
lfemur -60.0184 6.96861 -23.7563
ltibia 27.2538
lfoot 21.3611 2.93043
ltoes -9.99273
789
root -10.6686 16.2444 -4.83779 -454.125 88.15 -473.435
lowerback 29.1835 -1.21942 1.07516
upperback 6.24538 -0.711995 -0.256086
thorax -9.08796 -0.132241 -0.690302
lowerneck 6.53737 0.0300376 0.774256
upperneck -17.5933 0.867491 2.65121
head -6.42741 0.278776 0.637884
rclavicle -1.39149e-014 -1.88845e-014
rhumerus -25.3339 3.28019 -89.2197
rradius 37.2503
rwrist -6.1726
rhand -21.0323 -6.76437
rfingers 7.12502
rthumb 5.3432 -36.677
lclavicle -1.39149e-014 -1.88845e-014
lhumerus -27.5089 -7.00654 85.9754
lradius 38.5957
lwrist 27.1849
lhand -19.791 10.2164
lfingers 7.12502
lthumb 6.54156 40.0954
rfemur -38.9578 2.91791 28.1571
rtibia 53.7557
rfoot -30.0357 -9.81693
rtoes 5.62044
lfemur -60.4372 6.82623 -23.592
ltibia 28.7409
lfoot 20.3259 2.5149
ltoes -11.4594
790
root -10.7974 16.2394 -4.81677 -461.238 88.2266 -480.421
lowerback 29.3074 -1.26912 1.04535
upperback 6.28113 -0.776991 -0.275383
thorax -9.10923 -0.158797 -0.671299
lowerneck 6.4878 0.00171139 0.774886
upperneck -17.5539 0.832746 2.68793
head -6.40597 0.259689 0.652027
rclavicle -8.34896e-015 5.36719e-015
rhumerus -25.3467 3.27977 -89.2368
rradius 37.3191
rwrist -6.21332
rhand -21.0824 -6.79718
rfingers 7.12502
rthumb 5.29484 -36.711
lclavicle -8.34896e-015 5.36719e-015
lhumerus -27.4156 -7.1137 85.9898
lradius 38.5903
lwrist 27.1537
lhand -19.7738 10.2217
lfingers 7.12502
lthumb 6.55817 40.1001
rfemur -39.5422 2.6461 28.12
rtibia 54.0787
rfoot -29.8423 -9.75611
rtoes 6.01846
lfemur -60.8968 6.68217 -23.4282
ltibia 30.5258
lfoot 19.0775 2.00452
ltoes -12.7729
791
root -10.9244 16.235 -4.7976 -468.103 88.2899 -487.168
lowerback 29.4313 -1.30371 1.00971
upperback 6.31504 -0.824747 -0.293825
thorax -9.13202 -0.177302 -0.654022
lowerneck 6.4438 -0.0280913 0.767338
upperneck -17.5323 0.794155 2.71503
head -6.39111 0.239961 0.664743
rclavicle 1.05356e-014 1.13307e-014
rhumerus -25.3702 3.29075 -89.2357
rradius 37.3681
rwrist -6.21097
rhand -21.1241 -6.8348
rfingers 7.12502
rthumb 5.25456 -36.7497
lclavicle 1.05356e-014 1.13307e-014
lhumerus -27.3199 -7.19463 86.0127
lradius 38.5693
lwrist 27.1281
lhand -19.7659 10.2098
lfingers 7.12502
lthumb 6.56583 40.088
rfemur -40.1405 2.37754 28.0623
rtibia 54.4168
rfoot -29.5975 -9.64835
rtoes 6.35391
lfemur -61.3907 6.56861 -23.2904
ltibia 32.5638
lfoot 17.6929 1.34621
ltoes -14.0292
792
root -11.0496 16.2316 -4.7804 -474.66 88.3425 -493.62
lowerback 29.5518 -1.32479 0.975086
upperback 6.34567 -0.855656 -0.312338
thorax -9.15649 -0.1882 -0.643408
lowerneck 6.41595 -0.0597676 0.754161
upperneck -17.5375 0.752329 2.73398
head -6.38748 0.219449 0.676062
rclavicle 9.93923e-016 -2.82274e-014
rhumerus -25.4052 3.30345 -89.2169
rradius 37.4005
rwrist -6.1689
rhand -21.1524 -6.88067
rfingers 7.12502
rthumb 5.22723 -36.7962
lclavicle 9.93923e-016 -2.82274e-014
lhumerus -27.2289 -7.25884 86.0446
lradius 38.5437
lwrist 27.1096
lhand -19.7712 10.1974
lfingers 7.12502
lthumb 6.56069 40.0757
rfemur -40.7372 2.10626 27.9895
rtibia 54.741
rfoot -29.3169 -9.49741
rtoes 6.65636
lfemur -61.9089 6.48245 -23.1796
ltibia 34.8119
lfoot 16.2191 0.570131
ltoes -15.2055
793
root -11.1729 16.2297 -4.76494 -480.716 88.3839 -499.584
lowerback 29.6638 -1.33327 0.944439
upperback 6.37263 -0.869942 -0.328053
thorax -9.18051 -0.191716 -0.637939
lowerneck 6.40693 -0.0907274 0.740869
upperneck -17.5681 0.710509 2.73911
head -6.39517 0.199773 0.683042
rclavicle 1.78906e-015 2.08724e-014
rhumerus -25.4471 3.3215 -89.1824
rradius 37.4113
rwrist -6.09517
rhand -21.172 -6.92705
rfingers 7.12502
rthumb 5.20825 -36.843
lclavicle 1.78906e-015 2.08724e-014
lhumerus -27.144 -7.30429 86.0837
lradius 38.512
lwrist 27.0991
lhand -19.7805 10.15
lfingers 7.12502
lthumb 6.55175 40.0286
rfemur -41.317 1.83693 27.9138
rtibia 55.0213
rfoot -29.0158 -9.32262
rtoes 6.9282
lfemur -62.4449 6.42506 -23.0853
ltibia 37.2358
lfoot 14.693 -0.268574
ltoes -16.1763
794
root -11.2943 16.2294 -4.75098 -486.232 88.4111 -505.026
lowerback 29.7617 -1.33271 0.921995
upperback 6.39438 -0.870876 -0.338656
thorax -9.20332 -0.18956 -0.636331
lowerneck 6.41444 -0.118892 0.729626
upperneck -17.6152 0.671648 2.73221
head -6.41101 0.182125 0.685676
rclavicle 8.54774e-015 7.15625e-015
rhumerus -25.4929 3.34489 -89.1341
rradius 37.3968
rwrist -6.00142
rhand -21.1755 -6.98247
rfingers 7.12502
rthumb 5.20494 -36.8985
lclavicle 8.54774e-015 7.15625e-015
lhumerus -27.0715 -7.33898 86.1316
lradius 38.4851
lwrist 27.0989
lhand -19.7892 10.1126
lfingers 7.12502
lthumb 6.54331 39.9915
rfemur -41.8705 1.57449 27.844
rtibia 55.2375
rfoot -28.7091 -9.14149
rtoes 7.18085
lfemur -62.9966 6.39374 -22.9998
ltibia 39.8027
lfoot 13.1317 -1.13732
ltoes -16.9094
795
root -11.414 16.2311 -4.73815 -491.144 88.417 -509.881
lowerback 29.8451 -1.32915 0.915121
upperback 6.4088 -0.863869 -0.342478
thorax -9.22736 -0.184484 -0.639012
lowerneck 6.43907 -0.142584 0.72183
upperneck -17.6679 0.638383 2.71781
head -6.43166 0.167311 0.684966
rclavicle -1.39149e-014 -2.00773e-014
rhumerus -25.5418 3.37093 -89.0762
rradius 37.3497
rwrist -5.89367
rhand -21.1686 -7.02569
rfingers 7.12502
rthumb 5.21153 -36.9416
lclavicle -1.39149e-014 -2.00773e-014
lhumerus -27.0176 -7.36365 86.1854
lradius 38.4663
lwrist 27.1056
lhand -19.8008 10.0837
lfingers 7.12502
lthumb 6.53216 39.9629
rfemur -42.3874 1.31977 27.7904
rtibia 55.3763
rfoot -28.4028 -8.96739
rtoes 7.40382
lfemur -63.5536 6.3664 -22.8908
ltibia 42.4837
lfoot 11.5551 -1.96637
ltoes -17.3681
796
root -11.532 16.2346 -4.72615 -495.255 88.4017 -513.958
lowerback 29.9061 -1.32346 0.922319
upperback 6.41635 -0.850388 -0.337259
thorax -9.24828 -0.177168 -0.642072
lowerneck 6.45716 -0.1599 0.714836
upperneck -17.7015 0.612486 2.70085
head -6.44518 0.156313 0.682731
rclavicle -8.34896e-015 -7.7526e-015
rhumerus -25.5867 3.40462 -89.0099
rradius 37.2711
rwrist -5.80193
rhand -21.1446 -7.08203
rfingers 7.12502
rthumb 5.23476 -36.9974
lclavicle -8.34896e-015 -7.7526e-015
lhumerus -26.9805 -7.37936 86.2436
lradius 38.4555
lwrist 27.1234
lhand -19.8044 10.0561
lfingers 7.12502
lthumb 6.52867 39.9355
rfemur -42.8753 1.08171 27.7574
rtibia 55.4384
rfoot -28.0951 -8.81437
rtoes 7.5972
lfemur -64.117 6.34564 -22.7572
ltibia 45.2439
lfoot 9.99625 -2.73261
ltoes -17.6451
797
root -11.6486 16.2398 -4.71491 -498.527 88.3669 -517.221
lowerback 29.9417 -1.31692 0.944031
upperback 6.41658 -0.832048 -0.323041
thorax -9.26515 -0.168413 -0.645231
lowerneck 6.46229 -0.171535 0.708864
upperneck -17.7068 0.593064 2.68453
head -6.44745 0.148492 0.679985
rclavicle -1.53064e-014 -9.74045e-015
rhumerus -25.6254 3.43242 -88.936
rradius 37.1544
rwrist -5.70833
rhand -21.1241 -7.12626
rfingers 7.12502
rthumb 5.25451 -37.0411
lclavicle -1.53064e-014 -9.74045e-015
lhumerus -26.9578 -7.3768 86.3041
lradius 38.4486
lwrist 27.1439
lhand -19.7889 10.0208
lfingers 7.12502
lthumb 6.54361 39.8997
rfemur -43.3414 0.858972 27.7455
rtibia 55.4319
rfoot -27.7817 -8.68392
rtoes 7.75288
lfemur -64.6765 6.32072 -22.5903
ltibia 48.0486
lfoot 8.48106 -3.38481
ltoes -17.8041
798
root -11.7642 16.2467 -4.70435 -500.891 88.3168 -519.602
lowerback 29.9515 -1.30903 0.980243
upperback 6.40955 -0.8083 -0.300679
thorax -9.27775 -0.15798 -0.649638
lowerneck 6.44421 -0.180272 0.708471
upperneck -17.6783 0.576383 2.66763
head -6.43496 0.141963 0.675828
rclavicle 9.14409e-015 1.17283e-014
rhumerus -25.6577 3.44917 -88.8559
rradius 37.0095
rwrist -5.62105
rhand -21.1028 -7.16832
rfingers 7.12502
rthumb 5.27506 -37.0827
lclavicle 9.14409e-015 1.17283e-014
lhumerus -26.9441 -7.36084 86.3658
lradius 38.4421
lwrist 27.1652
lhand -19.7592 9.99217
lfingers 7.12502
lthumb 6.57229 39.8702
rfemur -43.8004 0.653569 27.7558
rtibia 55.3697
rfoot -27.4529 -8.58524
rtoes 7.85942
lfemur -65.2223 6.28461 -22.3858
ltibia 50.8605
lfoot 7.03566 -3.87129
ltoes -17.8677
799
root -11.8791 16.255 -4.69453 -502.507 88.2606 -521.265
lowerback 29.9375 -1.29801 1.02117
upperback 6.3959 -0.779802 -0.27063
thorax -9.28618 -0.145915 -0.649887
lowerneck 6.4055 -0.18756 0.717385
upperneck -17.6264 0.560144 2.64247
head -6.41139 0.135934 0.667386
rclavicle 1.96797e-014 1.14301e-014
rhumerus -25.6824 3.45243 -88.7683
rradius 36.8459
rwrist -5.54297
rhand -21.0748 -7.21383
rfingers 7.12502
rthumb 5.30209 -37.1275
lclavicle 1.96797e-014 1.14301e-014
lhumerus -26.9371 -7.32803 86.4303
lradius 38.4332
lwrist 27.1888
lhand -19.7077 9.94386
lfingers 7.12502
lthumb 6.62195 39.8203
rfemur -44.2641 0.462729 27.7809
rtibia 55.2659
rfoot -27.102 -8.50831
rtoes 7.93586
lfemur -65.7446 6.24556 -22.1631
ltibia 53.6444
lfoot 5.67431 -4.19755
ltoes -18.0013
